<svg width="12" height="9" viewBox="0 0 12 9" fill="none" xmlns="http://www.w3.org/2000/svg">
<path fill-rule="evenodd" clip-rule="evenodd" d="M10.581 0.254914C11.0922 0.395179 11.4947 0.808467 11.6313 1.33331C11.8796 2.28452 11.8796 4.26923 11.8796 4.26923C11.8796 4.26923 11.8796 6.25387 11.6313 7.20515C11.4947 7.72998 11.0922 8.14327 10.581 8.28361C9.65466 8.53845 5.93979 8.53845 5.93979 8.53845C5.93979 8.53845 2.22493 8.53845 1.29852 8.28361C0.78736 8.14327 0.384804 7.72998 0.248189 7.20515C0 6.25387 0 4.26923 0 4.26923C0 4.26923 0 2.28452 0.248189 1.33331C0.384804 0.808467 0.78736 0.395179 1.29852 0.254914C2.22493 0 5.93979 0 5.93979 0C5.93979 0 9.65466 0 10.581 0.254914ZM4.82609 2.59862V6.31099L7.79599 4.45488L4.82609 2.59862Z" fill="white"/>
</svg>
